%TF.GenerationSoftware,KiCad,Pcbnew,8.0.9*%
%TF.CreationDate,2025-02-25T22:51:42+01:00*%
%TF.ProjectId,WLED Controller,574c4544-2043-46f6-9e74-726f6c6c6572,rev?*%
%TF.SameCoordinates,Original*%
%TF.FileFunction,Soldermask,Bot*%
%TF.FilePolarity,Negative*%
%FSLAX46Y46*%
G04 Gerber Fmt 4.6, Leading zero omitted, Abs format (unit mm)*
G04 Created by KiCad (PCBNEW 8.0.9) date 2025-02-25 22:51:42*
%MOMM*%
%LPD*%
G01*
G04 APERTURE LIST*
G04 Aperture macros list*
%AMRoundRect*
0 Rectangle with rounded corners*
0 $1 Rounding radius*
0 $2 $3 $4 $5 $6 $7 $8 $9 X,Y pos of 4 corners*
0 Add a 4 corners polygon primitive as box body*
4,1,4,$2,$3,$4,$5,$6,$7,$8,$9,$2,$3,0*
0 Add four circle primitives for the rounded corners*
1,1,$1+$1,$2,$3*
1,1,$1+$1,$4,$5*
1,1,$1+$1,$6,$7*
1,1,$1+$1,$8,$9*
0 Add four rect primitives between the rounded corners*
20,1,$1+$1,$2,$3,$4,$5,0*
20,1,$1+$1,$4,$5,$6,$7,0*
20,1,$1+$1,$6,$7,$8,$9,0*
20,1,$1+$1,$8,$9,$2,$3,0*%
G04 Aperture macros list end*
%ADD10C,4.000000*%
%ADD11C,1.200000*%
%ADD12RoundRect,0.250000X0.725000X-0.600000X0.725000X0.600000X-0.725000X0.600000X-0.725000X-0.600000X0*%
%ADD13O,1.950000X1.700000*%
%ADD14R,1.600000X1.600000*%
%ADD15C,1.600000*%
%ADD16C,3.200000*%
%ADD17R,1.700000X1.700000*%
%ADD18O,1.700000X1.700000*%
%ADD19R,3.000000X3.000000*%
%ADD20C,3.000000*%
%ADD21C,2.500000*%
%ADD22RoundRect,0.250000X0.450000X-0.350000X0.450000X0.350000X-0.450000X0.350000X-0.450000X-0.350000X0*%
%ADD23RoundRect,0.250000X0.350000X0.450000X-0.350000X0.450000X-0.350000X-0.450000X0.350000X-0.450000X0*%
%ADD24RoundRect,0.250000X0.412500X1.100000X-0.412500X1.100000X-0.412500X-1.100000X0.412500X-1.100000X0*%
%ADD25RoundRect,0.250000X-0.350000X-0.450000X0.350000X-0.450000X0.350000X0.450000X-0.350000X0.450000X0*%
G04 APERTURE END LIST*
D10*
%TO.C,U4*%
X30440300Y-88228500D03*
X25258700Y-88228500D03*
X30389500Y-62447500D03*
X40346300Y-62447500D03*
%TD*%
D11*
%TO.C,J18*%
X90900000Y-87245000D03*
D12*
X88900000Y-85645000D03*
D13*
X88900000Y-83145000D03*
X88900000Y-80645000D03*
%TD*%
D11*
%TO.C,J26*%
X99155000Y-98675000D03*
D12*
X97155000Y-97075000D03*
D13*
X97155000Y-94575000D03*
X97155000Y-92075000D03*
%TD*%
D11*
%TO.C,J15*%
X66135000Y-87245000D03*
D12*
X64135000Y-85645000D03*
D13*
X64135000Y-83145000D03*
X64135000Y-80645000D03*
%TD*%
D14*
%TO.C,C9*%
X82932651Y-72390000D03*
D15*
X79432651Y-72390000D03*
%TD*%
D11*
%TO.C,J44*%
X99155000Y-30175000D03*
D12*
X97155000Y-28575000D03*
D13*
X97155000Y-26075000D03*
X97155000Y-23575000D03*
%TD*%
D11*
%TO.C,J20*%
X107410000Y-87325000D03*
D12*
X105410000Y-85725000D03*
D13*
X105410000Y-83225000D03*
X105410000Y-80725000D03*
%TD*%
D11*
%TO.C,J39*%
X107410000Y-52955000D03*
D12*
X105410000Y-51355000D03*
D13*
X105410000Y-48855000D03*
X105410000Y-46355000D03*
%TD*%
D11*
%TO.C,J14*%
X57880000Y-87325000D03*
D12*
X55880000Y-85725000D03*
D13*
X55880000Y-83225000D03*
X55880000Y-80725000D03*
%TD*%
D11*
%TO.C,J36*%
X107410000Y-64385000D03*
D12*
X105410000Y-62785000D03*
D13*
X105410000Y-60285000D03*
X105410000Y-57785000D03*
%TD*%
D11*
%TO.C,J24*%
X115665000Y-75815000D03*
D12*
X113665000Y-74215000D03*
D13*
X113665000Y-71715000D03*
X113665000Y-69215000D03*
%TD*%
D11*
%TO.C,J8*%
X49625000Y-87325000D03*
D12*
X47625000Y-85725000D03*
D13*
X47625000Y-83225000D03*
X47625000Y-80725000D03*
%TD*%
D11*
%TO.C,J31*%
X115665000Y-110105000D03*
D12*
X113665000Y-108505000D03*
D13*
X113665000Y-106005000D03*
X113665000Y-103505000D03*
%TD*%
D11*
%TO.C,J22*%
X99155000Y-75815000D03*
D12*
X97155000Y-74215000D03*
D13*
X97155000Y-71715000D03*
X97155000Y-69215000D03*
%TD*%
D16*
%TO.C,H4*%
X115570000Y-115570000D03*
%TD*%
D11*
%TO.C,J42*%
X107410000Y-41525000D03*
D12*
X105410000Y-39925000D03*
D13*
X105410000Y-37425000D03*
X105410000Y-34925000D03*
%TD*%
D11*
%TO.C,J32*%
X99155000Y-110105000D03*
D12*
X97155000Y-108505000D03*
D13*
X97155000Y-106005000D03*
X97155000Y-103505000D03*
%TD*%
D16*
%TO.C,H3*%
X24130000Y-115570000D03*
%TD*%
D17*
%TO.C,J1*%
X73170000Y-33665000D03*
D18*
X73170000Y-36205000D03*
X73170000Y-38745000D03*
X73170000Y-41285000D03*
%TD*%
D11*
%TO.C,J9*%
X90900000Y-75895000D03*
D12*
X88900000Y-74295000D03*
D13*
X88900000Y-71795000D03*
X88900000Y-69295000D03*
%TD*%
D11*
%TO.C,J12*%
X90900000Y-41525000D03*
D12*
X88900000Y-39925000D03*
D13*
X88900000Y-37425000D03*
X88900000Y-34925000D03*
%TD*%
D11*
%TO.C,J16*%
X74390000Y-87245000D03*
D12*
X72390000Y-85645000D03*
D13*
X72390000Y-83145000D03*
X72390000Y-80645000D03*
%TD*%
D19*
%TO.C,J5*%
X77470000Y-113665000D03*
D20*
X82550000Y-113665000D03*
%TD*%
D11*
%TO.C,J23*%
X107410000Y-75815000D03*
D12*
X105410000Y-74215000D03*
D13*
X105410000Y-71715000D03*
X105410000Y-69215000D03*
%TD*%
D19*
%TO.C,J46*%
X83185000Y-26035000D03*
D20*
X78105000Y-26035000D03*
%TD*%
D11*
%TO.C,J7*%
X57880000Y-98675000D03*
D12*
X55880000Y-97075000D03*
D13*
X55880000Y-94575000D03*
X55880000Y-92075000D03*
%TD*%
D11*
%TO.C,J33*%
X107410000Y-110105000D03*
D12*
X105410000Y-108505000D03*
D13*
X105410000Y-106005000D03*
X105410000Y-103505000D03*
%TD*%
D11*
%TO.C,J34*%
X82645000Y-98675000D03*
D12*
X80645000Y-97075000D03*
D13*
X80645000Y-94575000D03*
X80645000Y-92075000D03*
%TD*%
D11*
%TO.C,J35*%
X99155000Y-64385000D03*
D12*
X97155000Y-62785000D03*
D13*
X97155000Y-60285000D03*
X97155000Y-57785000D03*
%TD*%
D11*
%TO.C,J25*%
X90900000Y-98675000D03*
D12*
X88900000Y-97075000D03*
D13*
X88900000Y-94575000D03*
X88900000Y-92075000D03*
%TD*%
D16*
%TO.C,H2*%
X115570000Y-24130000D03*
%TD*%
D14*
%TO.C,C1*%
X37212651Y-54610000D03*
D15*
X33712651Y-54610000D03*
%TD*%
D14*
%TO.C,C5*%
X83185000Y-34290000D03*
D15*
X79685000Y-34290000D03*
%TD*%
D11*
%TO.C,J41*%
X99155000Y-41525000D03*
D12*
X97155000Y-39925000D03*
D13*
X97155000Y-37425000D03*
X97155000Y-34925000D03*
%TD*%
D11*
%TO.C,J19*%
X99155000Y-87245000D03*
D12*
X97155000Y-85645000D03*
D13*
X97155000Y-83145000D03*
X97155000Y-80645000D03*
%TD*%
D11*
%TO.C,J21*%
X115665000Y-87325000D03*
D12*
X113665000Y-85725000D03*
D13*
X113665000Y-83225000D03*
X113665000Y-80725000D03*
%TD*%
D19*
%TO.C,J4*%
X26035000Y-52070000D03*
D20*
X26035000Y-57150000D03*
%TD*%
D19*
%TO.C,J3*%
X32385000Y-114300000D03*
D20*
X37465000Y-114300000D03*
%TD*%
D14*
%TO.C,C2*%
X42545000Y-41657651D03*
D15*
X42545000Y-38157651D03*
%TD*%
D11*
%TO.C,J10*%
X90900000Y-64385000D03*
D12*
X88900000Y-62785000D03*
D13*
X88900000Y-60285000D03*
X88900000Y-57785000D03*
%TD*%
D14*
%TO.C,C8*%
X82932651Y-53340000D03*
D15*
X79432651Y-53340000D03*
%TD*%
D11*
%TO.C,J38*%
X99155000Y-52955000D03*
D12*
X97155000Y-51355000D03*
D13*
X97155000Y-48855000D03*
X97155000Y-46355000D03*
%TD*%
D14*
%TO.C,C6*%
X82932651Y-43815000D03*
D15*
X79432651Y-43815000D03*
%TD*%
D11*
%TO.C,J11*%
X90900000Y-52955000D03*
D12*
X88900000Y-51355000D03*
D13*
X88900000Y-48855000D03*
X88900000Y-46355000D03*
%TD*%
D11*
%TO.C,J27*%
X107410000Y-98675000D03*
D12*
X105410000Y-97075000D03*
D13*
X105410000Y-94575000D03*
X105410000Y-92075000D03*
%TD*%
D14*
%TO.C,C11*%
X56515000Y-103122349D03*
D15*
X56515000Y-106622349D03*
%TD*%
D11*
%TO.C,J45*%
X107410000Y-30095000D03*
D12*
X105410000Y-28495000D03*
D13*
X105410000Y-25995000D03*
X105410000Y-23495000D03*
%TD*%
D16*
%TO.C,H1*%
X24130000Y-24130000D03*
%TD*%
D11*
%TO.C,J29*%
X66135000Y-98755000D03*
D12*
X64135000Y-97155000D03*
D13*
X64135000Y-94655000D03*
X64135000Y-92155000D03*
%TD*%
D11*
%TO.C,J6*%
X90900000Y-110105000D03*
D12*
X88900000Y-108505000D03*
D13*
X88900000Y-106005000D03*
X88900000Y-103505000D03*
%TD*%
D11*
%TO.C,J17*%
X82645000Y-87245000D03*
D12*
X80645000Y-85645000D03*
D13*
X80645000Y-83145000D03*
X80645000Y-80645000D03*
%TD*%
D19*
%TO.C,J2*%
X43815000Y-114300000D03*
D20*
X48895000Y-114300000D03*
%TD*%
D11*
%TO.C,J30*%
X74390000Y-98755000D03*
D12*
X72390000Y-97155000D03*
D13*
X72390000Y-94655000D03*
X72390000Y-92155000D03*
%TD*%
D11*
%TO.C,J37*%
X115665000Y-64385000D03*
D12*
X113665000Y-62785000D03*
D13*
X113665000Y-60285000D03*
X113665000Y-57785000D03*
%TD*%
D11*
%TO.C,J28*%
X115665000Y-98675000D03*
D12*
X113665000Y-97075000D03*
D13*
X113665000Y-94575000D03*
X113665000Y-92075000D03*
%TD*%
D11*
%TO.C,J40*%
X115665000Y-52955000D03*
D12*
X113665000Y-51355000D03*
D13*
X113665000Y-48855000D03*
X113665000Y-46355000D03*
%TD*%
D11*
%TO.C,J13*%
X90900000Y-30135000D03*
D12*
X88900000Y-28535000D03*
D13*
X88900000Y-26035000D03*
X88900000Y-23535000D03*
%TD*%
D14*
%TO.C,C10*%
X82932651Y-105410000D03*
D15*
X79432651Y-105410000D03*
%TD*%
D11*
%TO.C,J43*%
X115665000Y-41525000D03*
D12*
X113665000Y-39925000D03*
D13*
X113665000Y-37425000D03*
X113665000Y-34925000D03*
%TD*%
D14*
%TO.C,C12*%
X48895000Y-74930000D03*
D15*
X48895000Y-71430000D03*
%TD*%
D20*
%TO.C,K1*%
X32775000Y-101600000D03*
D21*
X34725000Y-107650000D03*
D20*
X46925000Y-107650000D03*
X46975000Y-95600000D03*
D21*
X34725000Y-95650000D03*
%TD*%
D14*
%TO.C,C7*%
X82875000Y-62865000D03*
D15*
X79375000Y-62865000D03*
%TD*%
D22*
%TO.C,R1*%
X55010000Y-38800000D03*
X55010000Y-36800000D03*
%TD*%
D23*
%TO.C,R8*%
X67405000Y-50800000D03*
X65405000Y-50800000D03*
%TD*%
D24*
%TO.C,C3*%
X59455000Y-34260000D03*
X56330000Y-34260000D03*
%TD*%
D25*
%TO.C,R2*%
X65075000Y-48230000D03*
X67075000Y-48230000D03*
%TD*%
M02*
