M48
METRIC,TZ
T1C0.300
T2C0.800
T3C0.950
T4C1.000
T5C1.300
T6C1.500
T7C1.520
%
G90
G05
T1
X26035Y-74980
X28575Y-98035
X28575Y-108340
X31750Y-72390
X37345Y-46355
X38250Y-93980
X41935Y-53580
X45730Y-34260
X48260Y-66040
X49530Y-39370
X50945Y-62230
X52215Y-33020
X52215Y-35560
X55000Y-50530
X56330Y-34260
X57280Y-58420
X57280Y-62230
X57280Y-66040
X59715Y-40520
X62230Y-58420
X62230Y-59690
X62230Y-63500
X65405Y-50800
X69215Y-33020
X69215Y-49530
X69215Y-58420
X69215Y-62230
X69215Y-66040
X72535Y-51630
X74165Y-58420
X74165Y-59690
X74165Y-63500
T2
X33713Y-54610
X37213Y-54610
X42545Y-38158
X42545Y-41658
X48895Y-71430
X48895Y-74930
X56515Y-103122
X56515Y-106622
X79375Y-62865
X79433Y-43815
X79433Y-53340
X79433Y-72390
X79433Y-105410
X79685Y-34290
X82875Y-62865
X82933Y-43815
X82933Y-53340
X82933Y-72390
X82933Y-105410
X83185Y-34290
T3
X47625Y-80725
X47625Y-83225
X47625Y-85725
X55880Y-80725
X55880Y-83225
X55880Y-85725
X55880Y-92075
X55880Y-94575
X55880Y-97075
X64135Y-80645
X64135Y-83145
X64135Y-85645
X64135Y-92155
X64135Y-94655
X64135Y-97155
X72390Y-80645
X72390Y-83145
X72390Y-85645
X72390Y-92155
X72390Y-94655
X72390Y-97155
X80645Y-80645
X80645Y-83145
X80645Y-85645
X80645Y-92075
X80645Y-94575
X80645Y-97075
X88900Y-23535
X88900Y-26035
X88900Y-28535
X88900Y-34925
X88900Y-37425
X88900Y-39925
X88900Y-46355
X88900Y-48855
X88900Y-51355
X88900Y-57785
X88900Y-60285
X88900Y-62785
X88900Y-69295
X88900Y-71795
X88900Y-74295
X88900Y-80645
X88900Y-83145
X88900Y-85645
X88900Y-92075
X88900Y-94575
X88900Y-97075
X88900Y-103505
X88900Y-106005
X88900Y-108505
X97155Y-23575
X97155Y-26075
X97155Y-28575
X97155Y-34925
X97155Y-37425
X97155Y-39925
X97155Y-46355
X97155Y-48855
X97155Y-51355
X97155Y-57785
X97155Y-60285
X97155Y-62785
X97155Y-69215
X97155Y-71715
X97155Y-74215
X97155Y-80645
X97155Y-83145
X97155Y-85645
X97155Y-92075
X97155Y-94575
X97155Y-97075
X97155Y-103505
X97155Y-106005
X97155Y-108505
X105410Y-23495
X105410Y-25995
X105410Y-28495
X105410Y-34925
X105410Y-37425
X105410Y-39925
X105410Y-46355
X105410Y-48855
X105410Y-51355
X105410Y-57785
X105410Y-60285
X105410Y-62785
X105410Y-69215
X105410Y-71715
X105410Y-74215
X105410Y-80725
X105410Y-83225
X105410Y-85725
X105410Y-92075
X105410Y-94575
X105410Y-97075
X105410Y-103505
X105410Y-106005
X105410Y-108505
X113665Y-34925
X113665Y-37425
X113665Y-39925
X113665Y-46355
X113665Y-48855
X113665Y-51355
X113665Y-57785
X113665Y-60285
X113665Y-62785
X113665Y-69215
X113665Y-71715
X113665Y-74215
X113665Y-80725
X113665Y-83225
X113665Y-85725
X113665Y-92075
X113665Y-94575
X113665Y-97075
X113665Y-103505
X113665Y-106005
X113665Y-108505
T4
X34725Y-95650
X34725Y-107650
X73170Y-33665
X73170Y-36205
X73170Y-38745
X73170Y-41285
T5
X32775Y-101600
X46925Y-107650
X46975Y-95600
T6
X25259Y-88229
X30390Y-62448
X30440Y-88229
X40346Y-62448
T7
X26035Y-52070
X26035Y-57150
X32385Y-114300
X37465Y-114300
X43815Y-114300
X48895Y-114300
X77470Y-113665
X78105Y-26035
X82550Y-113665
X83185Y-26035
M30
