M48
METRIC,TZ
T1C1.200
T2C3.200
%
G90
G05
T1
X49625Y-87325
X57880Y-87325
X57880Y-98675
X66135Y-87245
X66135Y-98755
X74390Y-87245
X74390Y-98755
X82645Y-87245
X82645Y-98675
X90900Y-30135
X90900Y-41525
X90900Y-52955
X90900Y-64385
X90900Y-75895
X90900Y-87245
X90900Y-98675
X90900Y-110105
X99155Y-30175
X99155Y-41525
X99155Y-52955
X99155Y-64385
X99155Y-75815
X99155Y-87245
X99155Y-98675
X99155Y-110105
X107410Y-30095
X107410Y-41525
X107410Y-52955
X107410Y-64385
X107410Y-75815
X107410Y-87325
X107410Y-98675
X107410Y-110105
X115665Y-41525
X115665Y-52955
X115665Y-64385
X115665Y-75815
X115665Y-87325
X115665Y-98675
X115665Y-110105
T2
X24130Y-24130
X24130Y-115570
X115570Y-24130
X115570Y-115570
M30
