%TF.GenerationSoftware,KiCad,Pcbnew,8.0.9*%
%TF.CreationDate,2025-02-25T22:51:42+01:00*%
%TF.ProjectId,WLED Controller,574c4544-2043-46f6-9e74-726f6c6c6572,rev?*%
%TF.SameCoordinates,Original*%
%TF.FileFunction,Paste,Top*%
%TF.FilePolarity,Positive*%
%FSLAX46Y46*%
G04 Gerber Fmt 4.6, Leading zero omitted, Abs format (unit mm)*
G04 Created by KiCad (PCBNEW 8.0.9) date 2025-02-25 22:51:42*
%MOMM*%
%LPD*%
G01*
G04 APERTURE LIST*
G04 Aperture macros list*
%AMRoundRect*
0 Rectangle with rounded corners*
0 $1 Rounding radius*
0 $2 $3 $4 $5 $6 $7 $8 $9 X,Y pos of 4 corners*
0 Add a 4 corners polygon primitive as box body*
4,1,4,$2,$3,$4,$5,$6,$7,$8,$9,$2,$3,0*
0 Add four circle primitives for the rounded corners*
1,1,$1+$1,$2,$3*
1,1,$1+$1,$4,$5*
1,1,$1+$1,$6,$7*
1,1,$1+$1,$8,$9*
0 Add four rect primitives between the rounded corners*
20,1,$1+$1,$2,$3,$4,$5,0*
20,1,$1+$1,$4,$5,$6,$7,0*
20,1,$1+$1,$6,$7,$8,$9,0*
20,1,$1+$1,$8,$9,$2,$3,0*%
G04 Aperture macros list end*
%ADD10R,2.000000X0.900000*%
%ADD11R,0.900000X2.000000*%
%ADD12R,5.000000X5.000000*%
%ADD13RoundRect,0.150000X-0.150000X0.875000X-0.150000X-0.875000X0.150000X-0.875000X0.150000X0.875000X0*%
%ADD14RoundRect,0.250000X-0.325000X-0.450000X0.325000X-0.450000X0.325000X0.450000X-0.325000X0.450000X0*%
%ADD15RoundRect,0.250000X0.350000X0.450000X-0.350000X0.450000X-0.350000X-0.450000X0.350000X-0.450000X0*%
%ADD16RoundRect,0.200000X-0.200000X-0.800000X0.200000X-0.800000X0.200000X0.800000X-0.200000X0.800000X0*%
%ADD17RoundRect,0.150000X-0.825000X-0.150000X0.825000X-0.150000X0.825000X0.150000X-0.825000X0.150000X0*%
%ADD18RoundRect,0.250000X0.450000X-0.325000X0.450000X0.325000X-0.450000X0.325000X-0.450000X-0.325000X0*%
%ADD19RoundRect,0.375000X-0.625000X-0.375000X0.625000X-0.375000X0.625000X0.375000X-0.625000X0.375000X0*%
%ADD20RoundRect,0.500000X-0.500000X-1.400000X0.500000X-1.400000X0.500000X1.400000X-0.500000X1.400000X0*%
%ADD21RoundRect,0.250000X-0.350000X-0.450000X0.350000X-0.450000X0.350000X0.450000X-0.350000X0.450000X0*%
%ADD22RoundRect,0.250000X0.325000X0.450000X-0.325000X0.450000X-0.325000X-0.450000X0.325000X-0.450000X0*%
%ADD23RoundRect,0.200000X-0.800000X0.200000X-0.800000X-0.200000X0.800000X-0.200000X0.800000X0.200000X0*%
%ADD24RoundRect,0.250000X0.450000X-0.350000X0.450000X0.350000X-0.450000X0.350000X-0.450000X-0.350000X0*%
%ADD25RoundRect,0.250000X-1.100000X0.412500X-1.100000X-0.412500X1.100000X-0.412500X1.100000X0.412500X0*%
G04 APERTURE END LIST*
D10*
%TO.C,U1*%
X52215000Y-33020000D03*
X52215000Y-34290000D03*
X52215000Y-35560000D03*
X52215000Y-36830000D03*
X52215000Y-38100000D03*
X52215000Y-39370000D03*
X52215000Y-40640000D03*
X52215000Y-41910000D03*
X52215000Y-43180000D03*
X52215000Y-44450000D03*
X52215000Y-45720000D03*
X52215000Y-46990000D03*
X52215000Y-48260000D03*
X52215000Y-49530000D03*
D11*
X55000000Y-50530000D03*
X56270000Y-50530000D03*
X65160000Y-50530000D03*
X66430000Y-50530000D03*
D10*
X69215000Y-49530000D03*
X69215000Y-48260000D03*
X69215000Y-46990000D03*
X69215000Y-45720000D03*
X69215000Y-44450000D03*
X69215000Y-43180000D03*
X69215000Y-41910000D03*
X69215000Y-40640000D03*
X69215000Y-39370000D03*
X69215000Y-38100000D03*
X69215000Y-36830000D03*
X69215000Y-35560000D03*
X69215000Y-34290000D03*
X69215000Y-33020000D03*
D12*
X59715000Y-40520000D03*
%TD*%
D13*
%TO.C,U2*%
X41910000Y-72390000D03*
X40640000Y-72390000D03*
X39370000Y-72390000D03*
X38100000Y-72390000D03*
X36830000Y-72390000D03*
X35560000Y-72390000D03*
X34290000Y-72390000D03*
X33020000Y-72390000D03*
X31750000Y-72390000D03*
X31750000Y-81690000D03*
X33020000Y-81690000D03*
X34290000Y-81690000D03*
X35560000Y-81690000D03*
X36830000Y-81690000D03*
X38100000Y-81690000D03*
X39370000Y-81690000D03*
X40640000Y-81690000D03*
X41910000Y-81690000D03*
%TD*%
D14*
%TO.C,D2*%
X37345000Y-46355000D03*
X39395000Y-46355000D03*
%TD*%
D15*
%TO.C,R3*%
X46990000Y-62230000D03*
X44990000Y-62230000D03*
%TD*%
D16*
%TO.C,SW1*%
X45730000Y-34260000D03*
X49930000Y-34260000D03*
%TD*%
D17*
%TO.C,U6*%
X69215000Y-58420000D03*
X69215000Y-59690000D03*
X69215000Y-60960000D03*
X69215000Y-62230000D03*
X69215000Y-63500000D03*
X69215000Y-64770000D03*
X69215000Y-66040000D03*
X74165000Y-66040000D03*
X74165000Y-64770000D03*
X74165000Y-63500000D03*
X74165000Y-62230000D03*
X74165000Y-60960000D03*
X74165000Y-59690000D03*
X74165000Y-58420000D03*
%TD*%
D18*
%TO.C,D3*%
X28575000Y-108340000D03*
X28575000Y-106290000D03*
%TD*%
D19*
%TO.C,U3*%
X41935000Y-53580000D03*
X41935000Y-55880000D03*
D20*
X48235000Y-55880000D03*
D19*
X41935000Y-58180000D03*
%TD*%
D21*
%TO.C,R7*%
X35560000Y-92075000D03*
X37560000Y-92075000D03*
%TD*%
D22*
%TO.C,D1*%
X50945000Y-62230000D03*
X48895000Y-62230000D03*
%TD*%
D17*
%TO.C,U5*%
X57280000Y-58420000D03*
X57280000Y-59690000D03*
X57280000Y-60960000D03*
X57280000Y-62230000D03*
X57280000Y-63500000D03*
X57280000Y-64770000D03*
X57280000Y-66040000D03*
X62230000Y-66040000D03*
X62230000Y-64770000D03*
X62230000Y-63500000D03*
X62230000Y-62230000D03*
X62230000Y-60960000D03*
X62230000Y-59690000D03*
X62230000Y-58420000D03*
%TD*%
D23*
%TO.C,SW2*%
X72535000Y-47430000D03*
X72535000Y-51630000D03*
%TD*%
D14*
%TO.C,D4*%
X31700000Y-92075000D03*
X33750000Y-92075000D03*
%TD*%
D24*
%TO.C,R5*%
X28575000Y-104385000D03*
X28575000Y-102385000D03*
%TD*%
%TO.C,R6*%
X28575000Y-100035000D03*
X28575000Y-98035000D03*
%TD*%
D25*
%TO.C,C4*%
X26035000Y-74980000D03*
X26035000Y-78105000D03*
%TD*%
D21*
%TO.C,R4*%
X41180000Y-46355000D03*
X43180000Y-46355000D03*
%TD*%
M02*
