M48
; DRILL file {KiCad 8.0.9} date 2025-02-25T22:51:42+0100
; FORMAT={-:-/ absolute / metric / decimal}
; #@! TF.CreationDate,2025-02-25T22:51:42+01:00
; #@! TF.GenerationSoftware,Kicad,Pcbnew,8.0.9
; #@! TF.FileFunction,MixedPlating,1,2
FMAT,2
METRIC
; #@! TA.AperFunction,Plated,PTH,ViaDrill
T1C0.300
; #@! TA.AperFunction,Plated,PTH,ComponentDrill
T2C0.800
; #@! TA.AperFunction,Plated,PTH,ComponentDrill
T3C0.950
; #@! TA.AperFunction,Plated,PTH,ComponentDrill
T4C1.000
; #@! TA.AperFunction,Plated,PTH,ComponentDrill
T5C1.300
; #@! TA.AperFunction,Plated,PTH,ComponentDrill
T6C1.500
; #@! TA.AperFunction,Plated,PTH,ComponentDrill
T7C1.520
; #@! TA.AperFunction,NonPlated,NPTH,ComponentDrill
T8C1.200
; #@! TA.AperFunction,NonPlated,NPTH,ComponentDrill
T9C3.200
%
G90
G05
T1
X26.035Y-74.98
X28.575Y-98.035
X28.575Y-108.34
X31.75Y-72.39
X37.345Y-46.355
X38.25Y-93.98
X41.935Y-53.58
X45.73Y-34.26
X48.26Y-66.04
X49.53Y-39.37
X50.945Y-62.23
X52.215Y-33.02
X52.215Y-35.56
X55.0Y-50.53
X56.33Y-34.26
X57.28Y-58.42
X57.28Y-62.23
X57.28Y-66.04
X59.715Y-40.52
X62.23Y-58.42
X62.23Y-59.69
X62.23Y-63.5
X65.405Y-50.8
X69.215Y-33.02
X69.215Y-49.53
X69.215Y-58.42
X69.215Y-62.23
X69.215Y-66.04
X72.535Y-51.63
X74.165Y-58.42
X74.165Y-59.69
X74.165Y-63.5
T2
X33.713Y-54.61
X37.213Y-54.61
X42.545Y-38.158
X42.545Y-41.658
X48.895Y-71.43
X48.895Y-74.93
X56.515Y-103.122
X56.515Y-106.622
X79.375Y-62.865
X79.433Y-43.815
X79.433Y-53.34
X79.433Y-72.39
X79.433Y-105.41
X79.685Y-34.29
X82.875Y-62.865
X82.933Y-43.815
X82.933Y-53.34
X82.933Y-72.39
X82.933Y-105.41
X83.185Y-34.29
T3
X47.625Y-80.725
X47.625Y-83.225
X47.625Y-85.725
X55.88Y-80.725
X55.88Y-83.225
X55.88Y-85.725
X55.88Y-92.075
X55.88Y-94.575
X55.88Y-97.075
X64.135Y-80.645
X64.135Y-83.145
X64.135Y-85.645
X64.135Y-92.155
X64.135Y-94.655
X64.135Y-97.155
X72.39Y-80.645
X72.39Y-83.145
X72.39Y-85.645
X72.39Y-92.155
X72.39Y-94.655
X72.39Y-97.155
X80.645Y-80.645
X80.645Y-83.145
X80.645Y-85.645
X80.645Y-92.075
X80.645Y-94.575
X80.645Y-97.075
X88.9Y-23.535
X88.9Y-26.035
X88.9Y-28.535
X88.9Y-34.925
X88.9Y-37.425
X88.9Y-39.925
X88.9Y-46.355
X88.9Y-48.855
X88.9Y-51.355
X88.9Y-57.785
X88.9Y-60.285
X88.9Y-62.785
X88.9Y-69.295
X88.9Y-71.795
X88.9Y-74.295
X88.9Y-80.645
X88.9Y-83.145
X88.9Y-85.645
X88.9Y-92.075
X88.9Y-94.575
X88.9Y-97.075
X88.9Y-103.505
X88.9Y-106.005
X88.9Y-108.505
X97.155Y-23.575
X97.155Y-26.075
X97.155Y-28.575
X97.155Y-34.925
X97.155Y-37.425
X97.155Y-39.925
X97.155Y-46.355
X97.155Y-48.855
X97.155Y-51.355
X97.155Y-57.785
X97.155Y-60.285
X97.155Y-62.785
X97.155Y-69.215
X97.155Y-71.715
X97.155Y-74.215
X97.155Y-80.645
X97.155Y-83.145
X97.155Y-85.645
X97.155Y-92.075
X97.155Y-94.575
X97.155Y-97.075
X97.155Y-103.505
X97.155Y-106.005
X97.155Y-108.505
X105.41Y-23.495
X105.41Y-25.995
X105.41Y-28.495
X105.41Y-34.925
X105.41Y-37.425
X105.41Y-39.925
X105.41Y-46.355
X105.41Y-48.855
X105.41Y-51.355
X105.41Y-57.785
X105.41Y-60.285
X105.41Y-62.785
X105.41Y-69.215
X105.41Y-71.715
X105.41Y-74.215
X105.41Y-80.725
X105.41Y-83.225
X105.41Y-85.725
X105.41Y-92.075
X105.41Y-94.575
X105.41Y-97.075
X105.41Y-103.505
X105.41Y-106.005
X105.41Y-108.505
X113.665Y-34.925
X113.665Y-37.425
X113.665Y-39.925
X113.665Y-46.355
X113.665Y-48.855
X113.665Y-51.355
X113.665Y-57.785
X113.665Y-60.285
X113.665Y-62.785
X113.665Y-69.215
X113.665Y-71.715
X113.665Y-74.215
X113.665Y-80.725
X113.665Y-83.225
X113.665Y-85.725
X113.665Y-92.075
X113.665Y-94.575
X113.665Y-97.075
X113.665Y-103.505
X113.665Y-106.005
X113.665Y-108.505
T4
X34.725Y-95.65
X34.725Y-107.65
X73.17Y-33.665
X73.17Y-36.205
X73.17Y-38.745
X73.17Y-41.285
T5
X32.775Y-101.6
X46.925Y-107.65
X46.975Y-95.6
T6
X25.259Y-88.228
X30.389Y-62.447
X30.44Y-88.228
X40.346Y-62.447
T7
X26.035Y-52.07
X26.035Y-57.15
X32.385Y-114.3
X37.465Y-114.3
X43.815Y-114.3
X48.895Y-114.3
X77.47Y-113.665
X78.105Y-26.035
X82.55Y-113.665
X83.185Y-26.035
T8
X49.625Y-87.325
X57.88Y-87.325
X57.88Y-98.675
X66.135Y-87.245
X66.135Y-98.755
X74.39Y-87.245
X74.39Y-98.755
X82.645Y-87.245
X82.645Y-98.675
X90.9Y-30.135
X90.9Y-41.525
X90.9Y-52.955
X90.9Y-64.385
X90.9Y-75.895
X90.9Y-87.245
X90.9Y-98.675
X90.9Y-110.105
X99.155Y-30.175
X99.155Y-41.525
X99.155Y-52.955
X99.155Y-64.385
X99.155Y-75.815
X99.155Y-87.245
X99.155Y-98.675
X99.155Y-110.105
X107.41Y-30.095
X107.41Y-41.525
X107.41Y-52.955
X107.41Y-64.385
X107.41Y-75.815
X107.41Y-87.325
X107.41Y-98.675
X107.41Y-110.105
X115.665Y-41.525
X115.665Y-52.955
X115.665Y-64.385
X115.665Y-75.815
X115.665Y-87.325
X115.665Y-98.675
X115.665Y-110.105
T9
X24.13Y-24.13
X24.13Y-115.57
X115.57Y-24.13
X115.57Y-115.57
M30
